<svg id="Filled_cutting_cutting_Ex" height="512" viewBox="0 0 512 512" width="512" xmlns="http://www.w3.org/2000/svg" data-name="Filled cutting cutting Ex"><circle cx="256" cy="256" fill="#f7e1db" r="232"/><path d="m194.806 100.624a36 36 0 1 1 66.217 25.738 36 36 0 1 1 -55.19 43.94 36 36 0 1 1 -11.027-69.678z" fill="#fac850"/><path d="m161.983 162.446a36 36 0 1 0 -51.937 48.474 36 36 0 1 0 67.554 20.32 36 36 0 1 0 -15.618-68.794z" fill="#fa5d3f"/><path d="m424 212a108 108 0 1 0 -179.6 80.855 56 56 0 0 0 85.308 72.515 40.007 40.007 0 0 0 45.162-62.81 107.91 107.91 0 0 0 49.13-90.56z" fill="#fff9f8"/><path d="m186.865 214.384-96.065 71.916a32 32 0 0 0 38.353 51.235l78.847 102.465 96-80-78.782-94.38a32 32 0 0 0 -38.353-51.236z" fill="#fac850"/><path d="m379.485 288.788a264.367 264.367 0 0 1 -144.965 103.884c-17.323 5.014-30.265 21.207-28.015 38.771 2.207 17.5 23.116 29.191 45.559 22.778a328.384 328.384 0 0 0 180.066-129.037c13.287-19.191 8.931-42.751-6.927-50.464-15.909-7.775-35.403-.72-45.718 14.068z" fill="#fa5d3f"/><path d="m376 192a40 40 0 1 0 -76.557 16.257 39.98 39.98 0 1 0 41.114 23.486 40.006 40.006 0 0 0 35.443-39.743z" fill="#fac850"/><g><path d="m101.978 150.215a44.052 44.052 0 0 0 -2.145 62.185c.18.192.362.384.545.573a43.98 43.98 0 0 0 9.2 45.045q1.17 1.254 2.424 2.406l-26.002 19.468a40 40 0 0 0 41.143 68.153l74.513 96.834a7.989 7.989 0 0 0 2.572 2.178 37.088 37.088 0 0 0 10.031 9.643 45.677 45.677 0 0 0 25.265 7.314 53.646 53.646 0 0 0 14.729-2.1 336.261 336.261 0 0 0 97.709-45.914h.038v-.026a336.518 336.518 0 0 0 86.707-86.236c8.429-12.176 11.316-26.592 7.92-39.553-2.7-10.3-9.066-18.351-17.911-22.652a38.886 38.886 0 0 0 -9.2-3.139 116.619 116.619 0 0 0 -22.379-135.647 112.45 112.45 0 0 0 -81.263-32.747 120.73 120.73 0 0 0 -42 8.187 44 44 0 0 0 -84.84-12.118c-.1.245-.188.491-.28.738a44.115 44.115 0 0 0 -39.276 49.193 44.069 44.069 0 0 0 -47.5 8.215zm22.379 180.912a24 24 0 1 1 -28.765-38.427l96.067-71.911a24 24 0 0 1 28.765 38.426 8 8 0 0 0 -1.348 11.531l73.637 88.216a256 256 0 0 1 -60.413 26.025c-16.1 4.659-28.2 16.934-32.415 31.343l-64.389-83.678a8 8 0 0 0 -11.139-1.525zm306.792-36.886c2.179 8.315.087 18.18-5.6 26.394a318.545 318.545 0 0 1 -25.549 32.277v-16.912h-16v33.412a321.527 321.527 0 0 1 -32 26.943v-20.355h-16v31.408a321.366 321.366 0 0 1 -32 18.2v-25.608h-16v32.987a318.689 318.689 0 0 1 -38.133 13.542c-9.6 2.744-19.616 1.554-26.789-3.181-4.93-3.255-8-7.838-8.638-12.922-1.663-12.98 7.926-25.907 22.272-30.06a272.95 272.95 0 0 0 149.344-107.014c8.564-12.269 23.882-17.187 35.648-11.437 4.596 2.233 7.948 6.611 9.445 12.326zm-115.023-182.241a96.641 96.641 0 0 1 69.791 28.15 100.542 100.542 0 0 1 15.019 124.659 48.336 48.336 0 0 0 -28.012 19.4l-.02.028a256.449 256.449 0 0 1 -66.579 66.063l-70.125-84a40.02 40.02 0 0 0 -19.759-64.922 96.181 96.181 0 0 1 29.262-60.457 101.932 101.932 0 0 1 24.216-17.407l1.135.442c.162-.416.315-.832.463-1.249a104.245 104.245 0 0 1 44.609-10.707zm-149.039 14.453a28 28 0 0 1 27.358-17.837 7.994 7.994 0 0 0 8.189-6.341 28.4 28.4 0 0 1 1.314-4.409 28 28 0 0 1 53.828 14.046 117.986 117.986 0 0 0 -23.207 17.515 114.13 114.13 0 0 0 -25.226 36.166q-.168-.184-.338-.366a43.984 43.984 0 0 0 -39.332-13.406 27.85 27.85 0 0 1 -2.586-25.368zm-14.618 36.823a28.29 28.29 0 0 1 2.856 3.607 8 8 0 0 0 9.959 2.85 28.044 28.044 0 0 1 37.622 15.267 110.9 110.9 0 0 0 -2.437 15.376 39.784 39.784 0 0 0 -18.4 7.606l-56.9 42.593a28.054 28.054 0 0 1 -8.081-35.858 8 8 0 0 0 -2.157-10.13 28.363 28.363 0 0 1 -3.4-3.1 28 28 0 0 1 40.938-38.211z"/><path d="m256 480a224 224 0 0 1 -169.234-370.756l-12.083-10.488a240 240 0 1 0 363.383 313.621l-12.132-10.431a223.892 223.892 0 0 1 -169.934 78.054z"/><path d="m425.706 86.294a240 240 0 0 0 -335.224-4.087l11.036 11.585a224.011 224.011 0 0 1 335.982 293.513l12.956 9.39a240.041 240.041 0 0 0 -24.75-310.4z"/><path d="m289.115 202.346a47.969 47.969 0 1 0 61.77 35.308 47.969 47.969 0 1 0 -61.77-35.308zm17.272 9.882a8 8 0 0 0 .363-7.228 32.005 32.005 0 1 1 32.906 18.792 8 8 0 0 0 -6.406 11.208 32.005 32.005 0 1 1 -32.906-18.792 8 8 0 0 0 6.043-3.98z"/><path d="m152 288h16v16h-16z"/><path d="m200 296h16v16h-16z"/><path d="m224 352h16v16h-16z"/><path d="m184 336h16v16h-16z"/></g></svg>