<svg id="Capa_1" enable-background="new 0 0 512 512" height="512" viewBox="0 0 512 512" width="512" xmlns="http://www.w3.org/2000/svg"><g><g><g clip-rule="evenodd" fill-rule="evenodd"><path d="m301 52.5c0-24.799-20.06-44.913-44.839-45-24.948 0-45.162 20.01-45.162 45 0 24.718 20.021 45 45 45 24.981 0 45.001-20.281 45.001-45z" fill="#ff4a51"/><path d="m398.919 210.768c0-64.81-43.724-119.898-103.125-137.238-7.55 14.257-22.538 23.97-39.794 23.97s-32.244-9.714-39.791-23.972c-59.404 17.342-103.128 72.429-103.128 137.24v48.488l63.028.001c8.25 0 15 6.749 15 15 0 16.5 13.5 30 30 30s30-13.5 30-30c0-8.25 6.75-15 15-15l132.81-.001z" fill="#ff95bd"/><path d="m221.109 304.256c-16.5 0-30-13.499-30-30 0-8.25-6.75-15-15-15l-63.028-.001c-20.625 0-37.5 16.875-37.5 37.5s16.875 37.5 37.5 37.5h285.839c20.625 0 37.5-16.875 37.5-37.5s-16.874-37.5-37.5-37.5l-132.81.001c-8.25 0-15 6.749-15 15-.001 16.5-13.501 30-30.001 30z" fill="#fcc062"/><path d="m200.097 504.5-13.5-170.245h-73.516l29.999 170.245z" fill="#e4e8ed"/><path d="m256 504.5v-170.245h-69.403l13.5 170.245z" fill="#e4e8ed"/><path d="m311.902 504.5 13.5-170.245h-69.402v170.245z" fill="#e4e8ed"/><path d="m368.92 504.5 29.999-170.245h-73.517l-13.5 170.245z" fill="#e4e8ed"/><path d="m267.293 8.93c-28.265-7.306-56.294 13.989-56.294 43.57 0 29.586 27.974 50.854 56.25 43.585-44.695-11.492-44.748-75.649.044-87.155z" fill="#ff1d25"/><path d="m216.208 73.528c-59.404 17.342-103.128 72.429-103.128 137.24v48.488l63.028.001c8.25 0 15 6.749 15 15 0 16.5 13.5 30 30 30s30-13.5 30-30c0-8.25 6.75-15 15-15l132.81-.001v-14.999l-132.81.001c-16.529 0-30 13.471-30 29.999 0 8.22-6.78 15-15 15s-15-6.779-15-15c0-16.529-13.471-29.999-30-29.999l-40.529-.001v-33.488c0-53.741 24.349-98.056 74.702-119.418 11.006 12.938 27.404 21.15 45.717 21.15 23.8 0 44.366-13.87 54.064-33.958-4.642-1.913-9.402-3.592-14.27-5.013-7.548 14.257-22.536 23.97-39.792 23.97-16.9 0-32.094-9.431-39.792-23.972z" fill="#ff7bac"/><path d="m113.081 259.255c-20.625 0-37.5 16.875-37.5 37.5s16.875 37.5 37.5 37.5h22.5c-35.128 0-45.213-38.114-30.249-60l70.751.001c.67.548 2.327 44.999 45.027 44.999 42.794 0 44.036-44.164 45.026-44.999l162.732-.001c-6.859-9.094-17.747-15-29.948-15l-132.81.001c-8.25 0-15 6.749-15 15 0 16.5-13.5 30-30 30s-30-13.499-30-30c0-8.25-6.75-15-15-15z" fill="#fbb03b"/><path d="m113.081 334.255 30 170.244h22.5l-27.356-155.244h49.563l-1.189-15c-24.508 0-49.013 0-73.518 0z" fill="#c8d1da"/><path d="m186.597 334.255 13.5 170.244h15l-12.311-155.244h53.214v-15c-23.135 0-46.269 0-69.403 0z" fill="#c8d1da"/><path d="m256 334.255v170.245h15v-155.245h53.213l1.189-15c-23.134 0-46.268 0-69.402 0z" fill="#c8d1da"/><path d="m325.402 334.255-13.5 170.244h15l12.31-155.244h57.063l2.643-15c-24.505 0-49.01 0-73.516 0z" fill="#c8d1da"/></g><g><path d="m355.429 451.405-14.772-2.604 9.925-56.323 14.772 2.604zm12.529-71.097-14.772-2.604 2.599-14.751 14.772 2.604z" fill="#fff"/></g><g><path d="m180.581 236.756h-15v-15h15zm-30 0h-15v-15h15zm186.71-60.72h-15v-15h15zm15-15h-15v-15h15zm-30 0h-15v-15h15zm15-15h-15v-15h15z" fill="#fff"/></g><g><path d="m412.398 304.256h-15v-15h15zm-30 0h-15v-15h15z" fill="#fff"/></g><g><path d="m248.5 45h15v15h-15z" fill="#fff"/></g></g><g><path d="m362.625 497h-42.604l11.074-139.652-14.953-1.186-11.168 140.838h-97.948l-11.169-140.838-14.953 1.186 11.074 139.652h-42.604l-10.623-60.287-14.772 2.603 12.807 72.684h238.427l12.808-72.684-14.772-2.603z"/><path d="m115.403 356.243h15v67.51h-15z" transform="matrix(.985 -.174 .174 .985 -65.825 27.251)"/><path d="m355.342 382.497h67.51v15h-67.51z" transform="matrix(.174 -.985 .985 .174 -62.516 705.498)"/><path d="m398.919 251.756-65.311.001v15l65.311-.001c16.542 0 30 13.458 30 30s-13.458 30-30 30h-285.838c-16.542 0-30-13.458-30-30s13.458-30 30-30l63.028.001c4.136 0 7.5 3.364 7.5 7.499 0 20.678 16.823 37.5 37.5 37.5s37.5-16.822 37.5-37.5c0-4.135 3.364-7.499 7.5-7.499h52.499v-15h-52.499c-12.406 0-22.5 10.093-22.5 22.499s-10.093 22.5-22.5 22.5-22.5-10.094-22.5-22.5-10.094-22.499-22.5-22.499l-63.028-.001c-24.813 0-45 20.187-45 45s20.187 45 45 45h285.839c24.813 0 45-20.187 45-45s-20.188-45-45.001-45z"/><path d="m120.581 210.768c0-26.955 7.995-53.036 23.12-75.426l-12.43-8.396c-16.807 24.878-25.69 53.863-25.69 83.822v25.988h15z"/><path d="m212.909 82.438c9.494 13.623 25.264 22.562 43.091 22.562 17.83 0 33.603-8.942 43.096-22.57 54.637 18.485 92.323 70.46 92.323 128.337v25.988h15v-25.988c0-63.593-40.95-120.763-100.559-141.862 1.704-5.165 2.639-10.677 2.639-16.406 0-10.961-3.345-21.463-9.674-30.372l-12.229 8.686c4.516 6.357 6.902 13.856 6.902 21.687 0 20.678-16.822 37.5-37.5 37.5s-37.5-16.822-37.5-37.5 16.824-37.5 37.502-37.5c7.877 0 15.414 2.414 21.795 6.981l8.73-12.197c-8.942-6.4-19.498-9.784-30.525-9.784-28.949 0-52.5 23.552-52.5 52.5 0 5.735.938 11.252 2.645 16.423-25.367 8.963-47.845 24.536-65.374 45.431l11.492 9.641c16.204-19.317 37.083-33.595 60.646-41.557z"/><path d="m248.5 356.755h15v125.245h-15z"/></g></g></svg>