<svg id="Flat" height="512" viewBox="0 0 512 512" width="512" xmlns="http://www.w3.org/2000/svg"><path d="m384 488h-256l-40-240h328z" fill="#8c5237"/><path d="m328 296q0 .33-.03.66l-15.94 191.34h-16.03q0-.33.03-.66l15.95-191.34z" fill="#ad6643"/><path d="m216 488h-16.02l-15.95-191.34q-.03-.33-.03-.66h16.03l15.94 191.34q.03.33.03.66z" fill="#ad6643"/><path d="m376 296a8.346 8.346 0 0 1 -.06.99l-23.88 191.01h-16.06a8.346 8.346 0 0 1 .06-.99l23.88-191.01z" fill="#ad6643"/><path d="m248 296h16v192h-16z" fill="#ad6643"/><path d="m176 488h-16.06l-23.88-191.01a8.346 8.346 0 0 1 -.06-.99h16.06l23.88 191.01a8.346 8.346 0 0 1 .06.99z" fill="#ad6643"/><path d="m384 168v-16a128 128 0 0 0 -128-128 128 128 0 0 0 -128 128v16h-8a64 64 0 0 0 -64 64 64 64 0 0 0 64 64h8a32 32 0 0 0 32 32 32 32 0 0 0 32-32h32a32 32 0 0 0 32 32 32 32 0 0 0 32-32h32a32 32 0 0 0 32 32 32 32 0 0 0 32-32h8a64 64 0 0 0 64-64 64 64 0 0 0 -64-64z" fill="#d49073"/><g fill="#5e3d30"><circle cx="120" cy="232" r="16"/><circle cx="256" cy="88" r="16"/><circle cx="304" cy="184" r="16"/><circle cx="224" cy="248" r="16"/><circle cx="408" cy="248" r="8"/><circle cx="376" cy="248" r="8"/><circle cx="176" cy="152" r="8"/><circle cx="408" cy="216" r="8"/><circle cx="176" cy="120" r="8"/></g></svg>